<svg xmlns="http://www.w3.org/2000/svg" version="1.1" xmlns:xlink="http://www.w3.org/1999/xlink" xmlns:svgjs="http://svgjs.dev/svgjs" width="1440" height="560" preserveAspectRatio="none" viewBox="0 0 1440 560"><g mask="url(&quot;#SvgjsMask1004&quot;)" fill="none"><path d="M0 0L404.74 0L0 30.52z" fill="rgba(255, 255, 255, .1)"></path><path d="M0 30.52L404.74 0L456.45 0L0 144.39000000000001z" fill="rgba(255, 255, 255, .075)"></path><path d="M0 144.39000000000001L456.45 0L829.16 0L0 193.76000000000002z" fill="rgba(255, 255, 255, .05)"></path><path d="M0 193.76000000000002L829.16 0L840.87 0L0 345.13z" fill="rgba(255, 255, 255, .025)"></path><path d="M1440 560L1146.35 560L1440 383.97z" fill="rgba(0, 0, 0, .1)"></path><path d="M1440 383.97L1146.35 560L617.2399999999999 560L1440 329.14000000000004z" fill="rgba(0, 0, 0, .075)"></path><path d="M1440 329.14L617.24 560L473.34000000000003 560L1440 170.23z" fill="rgba(0, 0, 0, .05)"></path><path d="M1440 170.23000000000002L473.34000000000003 560L321.32000000000005 560L1440 66.25000000000001z" fill="rgba(0, 0, 0, .025)"></path></g><defs><mask id="SvgjsMask1004"><rect width="1440" height="560" fill="#ffffff"></rect></mask></defs></svg>