<svg xmlns="http://www.w3.org/2000/svg" version="1.1" xmlns:xlink="http://www.w3.org/1999/xlink" xmlns:svgjs="http://svgjs.com/svgjs" width="1440" height="560" preserveAspectRatio="none" viewBox="0 0 1440 560"><g mask="url(&quot;#SvgjsMask1008&quot;)" fill="none"><path d="M -721.0173852653305,466 C -577.02,388.8 -289.02,89.8 -1.017385265330546,80 C 286.98,70.2 430.98,404 718.9826147346695,417 C 1006.98,430 1294.78,166.8 1438.9826147346694,145 C 1583.19,123.2 1439.8,275.4 1440,308" stroke="rgba(22, 22, 25, 1)" stroke-width="2"></path><path d="M -959.3700205668714,179 C -815.37,216.6 -527.37,362.8 -239.37002056687137,367 C 48.63,371.2 192.63,183.6 480.6299794331286,200 C 768.63,216.4 1008.76,449.2 1200.6299794331287,449 C 1392.5,448.8 1392.13,249 1440,199" stroke="rgba(22, 22, 25, 1)" stroke-width="2"></path><path d="M -1141.1990695926036,451 C -997.2,403.2 -709.2,203 -421.1990695926035,212 C -133.2,221 10.8,500.2 298.8009304073965,496 C 586.8,491.8 790.56,205 1018.8009304073964,191 C 1247.04,177 1355.76,379 1440,426" stroke="rgba(22, 22, 25, 1)" stroke-width="2"></path></g><defs><mask id="SvgjsMask1008"><rect width="1440" height="560" fill="#ffffff"></rect></mask></defs></svg>